# File created by Blade
# Date/Time:  Mon Sep 22 15:50:36 2014
# Frame Rate: 120.000 fps
#------------------------------------------------------
:FULLY-SPECIFIED
:DEGREES
3622
root 2.628808 37.018921 3.823082 2.766247 1.977897 2.849538
RightUpLeg 7.881528 -9.318892 -5.220202
RightLeg -5.945282 -0.000000 0.000000
RightFoot -13.417042 -16.725577 17.001588
RightToeBase 13.540272 -0.000000 -0.000000
LeftUpLeg 5.131305 -2.523310 -0.404234
LeftLeg -3.549072 -0.000000 0.000000
LeftFoot -9.738607 13.450417 -17.521289
LeftToeBase 7.688161 -0.000000 -0.000000
Spine -1.713787 18.565625 -1.224560
RightShoulder 3.139939 -29.687471 -13.957482
RightArm 14.096884 -22.017208 67.157080
RightForeArm 12.058401 0.000000 47.491630
RightHand 3.341792 -0.000000 -1.989801
RightHandThumb1 -24.326973 -0.000000 -32.862282
LeftShoulder -36.420131 31.863005 5.928302
LeftArm 63.704102 -72.949052 -91.901908
LeftForeArm -56.169685 -0.000000 119.460464
LeftHand -15.217587 -0.000000 17.425727
LeftHandThumb1 -26.253704 0.000000 33.147579
Head 19.600695 3.149297 7.656863
3623
root 2.626049 37.016900 3.840495 2.732111 1.833062 2.839886
RightUpLeg 7.929232 -9.253982 -5.221649
RightLeg -5.976784 -0.000000 0.000000
RightFoot -13.406610 -16.669031 16.993020
RightToeBase 13.573243 -0.000000 -0.000000
LeftUpLeg 5.225773 -2.416150 -0.402920
LeftLeg -3.587739 -0.000000 0.000000
LeftFoot -9.766355 13.490622 -17.507581
LeftToeBase 7.732049 -0.000000 -0.000000
Spine -1.814430 18.794471 -1.256323
RightShoulder 3.145513 -29.765545 -14.015588
RightArm 14.089016 -22.320756 67.076566
RightForeArm 11.988807 -0.000000 47.428423
RightHand 3.231529 -0.000000 -1.997183
RightHandThumb1 -24.326973 -0.000000 -32.862282
LeftShoulder -36.319635 31.816947 5.964748
LeftArm 54.843687 -72.273006 -81.396175
LeftForeArm -57.058026 -0.000000 118.590462
LeftHand -15.447161 -0.000000 17.194683
LeftHandThumb1 -26.253704 0.000000 33.147579
Head 19.651528 2.992233 7.644246
3624
root 2.624070 37.014380 3.856079 2.722022 1.730879 2.831554
RightUpLeg 7.956140 -9.233303 -5.224206
RightLeg -5.996574 -0.000000 0.000000
RightFoot -13.391003 -16.589098 16.977434
RightToeBase 13.544490 -0.000000 -0.000000
LeftUpLeg 5.280613 -2.382916 -0.401208
LeftLeg -3.607523 -0.000000 0.000000
LeftFoot -9.806962 13.549079 -17.505017
LeftToeBase 7.726602 -0.000000 -0.000000
Spine -1.954881 19.010983 -1.295812
RightShoulder 3.147744 -29.851472 -14.069186
RightArm 14.067992 -22.627938 67.005097
RightForeArm 11.931680 -0.000000 47.345472
RightHand 3.275880 -0.000000 -1.853380
RightHandThumb1 -24.326973 -0.000000 -32.862282
LeftShoulder -36.275497 31.883308 5.974448
LeftArm 46.601706 -70.950439 -71.397392
LeftForeArm -57.943958 -0.000000 117.669812
LeftHand -15.443181 0.000000 16.476010
LeftHandThumb1 -26.253704 0.000000 33.147579
Head 19.718823 2.803653 7.618584
3625
root 2.624178 37.012942 3.865578 2.756350 1.678456 2.830206
RightUpLeg 7.926613 -9.245958 -5.225862
RightLeg -5.998234 -0.000000 0.000000
RightFoot -13.377182 -16.540196 16.942370
RightToeBase 13.548161 -0.000000 -0.000000
LeftUpLeg 5.253229 -2.419498 -0.406632
LeftLeg -3.577425 -0.000000 0.000000
LeftFoot -9.861642 13.609482 -17.536028
LeftToeBase 7.695390 -0.000000 -0.000000
Spine -2.157117 19.210602 -1.347595
RightShoulder 3.152265 -29.993449 -14.120608
RightArm 14.070824 -22.926388 66.902887
RightForeArm 11.893267 -0.000000 47.278019
RightHand 3.221377 -0.000000 -1.686486
RightHandThumb1 -24.326973 -0.000000 -32.862282
LeftShoulder -36.258714 32.043552 5.946016
LeftArm 39.340184 -69.019000 -62.224461
LeftForeArm -58.650150 -0.000000 116.686455
LeftHand -15.620270 0.000000 15.954393
LeftHandThumb1 -26.253704 0.000000 33.147579
Head 19.771542 2.703375 7.622334
3626
root 2.626665 37.011189 3.878740 2.759919 1.625942 2.842651
RightUpLeg 7.930220 -9.253560 -5.251439
RightLeg -5.989206 -0.000000 0.000000
RightFoot -13.391894 -16.476489 16.939745
RightToeBase 13.574492 -0.000000 -0.000000
LeftUpLeg 5.268773 -2.436673 -0.430599
LeftLeg -3.558423 -0.000000 0.000000
LeftFoot -9.914205 13.672871 -17.533359
LeftToeBase 7.707803 -0.000000 -0.000000
Spine -2.312474 19.436593 -1.398294
RightShoulder 3.123151 -30.132375 -14.153627
RightArm 14.069833 -23.208345 66.794150
RightForeArm 11.843197 -0.000000 47.220688
RightHand 3.158985 -0.000000 -1.490312
RightHandThumb1 -24.326973 -0.000000 -32.862282
LeftShoulder -36.241530 32.155772 5.983201
LeftArm 33.035444 -66.463469 -53.895741
LeftForeArm -59.256690 0.000000 115.618644
LeftHand -15.916102 0.000000 15.673632
LeftHandThumb1 -26.253704 0.000000 33.147579
Head 19.818933 2.469181 7.553460
3627
root 2.626200 37.009570 3.893659 2.735954 1.589532 2.830270
RightUpLeg 7.958184 -9.284181 -5.251868
RightLeg -5.961609 -0.000000 0.000000
RightFoot -13.398838 -16.403563 16.931438
RightToeBase 13.555367 -0.000000 -0.000000
LeftUpLeg 5.310301 -2.446651 -0.424081
LeftLeg -3.534106 -0.000000 0.000000
LeftFoot -9.956329 13.682075 -17.617529
LeftToeBase 7.585644 -0.000000 -0.000000
Spine -2.432456 19.663025 -1.397192
RightShoulder 3.090226 -30.271542 -14.192082
RightArm 14.073548 -23.493348 66.678519
RightForeArm 11.857099 0.000000 47.164511
RightHand 3.128056 -0.000000 -1.353117
RightHandThumb1 -24.326973 -0.000000 -32.862282
LeftShoulder -36.186683 32.242596 6.069834
LeftArm 27.815606 -63.389031 -46.580215
LeftForeArm -59.836415 -0.000000 114.489428
LeftHand -16.076656 -0.000000 14.911871
LeftHandThumb1 -26.253704 0.000000 33.147579
Head 19.854248 2.288744 7.496230
3628
root 2.628098 37.008298 3.910437 2.686414 1.547613 2.832348
RightUpLeg 8.012723 -9.275829 -5.273325
RightLeg -5.933651 -0.000000 0.000000
RightFoot -13.407335 -16.355326 16.926261
RightToeBase 13.517249 -0.000000 -0.000000
LeftUpLeg 5.385128 -2.436366 -0.438674
LeftLeg -3.518684 -0.000000 0.000000
LeftFoot -10.013975 13.729706 -17.560950
LeftToeBase 7.682629 -0.000000 -0.000000
Spine -2.530899 19.897922 -1.397385
RightShoulder 3.077551 -30.403034 -14.226482
RightArm 14.053063 -23.766013 66.565350
RightForeArm 11.752678 -0.000000 47.110276
RightHand 3.138141 0.000000 -1.209968
RightHandThumb1 -24.326973 -0.000000 -32.862282
LeftShoulder -36.083522 32.267117 6.297268
LeftArm 23.663916 -59.782892 -40.306815
LeftForeArm -60.424768 -0.000000 113.358343
LeftHand -16.453846 -0.000000 14.291948
LeftHandThumb1 -26.253704 0.000000 33.147579
Head 19.893153 2.156561 7.441773
3629
root 2.627571 37.006988 3.924001 2.640967 1.562599 2.823237
RightUpLeg 8.058763 -9.302404 -5.273794
RightLeg -5.884745 -0.000000 0.000000
RightFoot -13.428575 -16.339488 16.899030
RightToeBase 13.461793 -0.000000 -0.000000
LeftUpLeg 5.432227 -2.440461 -0.433874
LeftLeg -3.482640 -0.000000 0.000000
LeftFoot -10.040041 13.735608 -17.497254
LeftToeBase 7.679586 -0.000000 -0.000000
Spine -2.621657 20.062488 -1.372361
RightShoulder 3.090860 -30.541880 -14.281927
RightArm 14.058528 -24.025016 66.449425
RightForeArm 11.643362 -0.000000 47.032286
RightHand 3.176288 0.000000 -0.938753
RightHandThumb1 -24.326973 -0.000000 -32.862282
LeftShoulder -35.949133 32.346312 6.553934
LeftArm 20.443316 -55.859656 -34.967231
LeftForeArm -61.110346 0.000000 112.215770
LeftHand -16.938256 0.000000 13.302027
LeftHandThumb1 -26.253704 0.000000 33.147579
Head 19.938002 2.072414 7.373948
3630
root 2.630682 37.005573 3.938910 2.562955 1.619583 2.826999
RightUpLeg 8.143666 -9.378415 -5.300482
RightLeg -5.824022 -0.000000 0.000000
RightFoot -13.475724 -16.293811 16.905908
RightToeBase 13.475628 -0.000000 -0.000000
LeftUpLeg 5.514312 -2.522462 -0.449778
LeftLeg -3.448465 -0.000000 0.000000
LeftFoot -10.041641 13.768273 -17.413790
LeftToeBase 7.541089 -0.000000 -0.000000
Spine -2.676602 20.202098 -1.317729
RightShoulder 3.119040 -30.687557 -14.362204
RightArm 14.046357 -24.257860 66.357558
RightForeArm 11.663932 -0.000000 46.998759
RightHand 3.082239 -0.000000 -0.857437
RightHandThumb1 -24.326973 -0.000000 -32.862282
LeftShoulder -35.803645 32.627718 6.725305
LeftArm 18.138854 -51.812263 -30.489311
LeftForeArm -61.959549 -0.000000 111.070122
LeftHand -17.522256 -0.000000 12.179814
LeftHandThumb1 -26.253704 0.000000 33.147579
Head 20.016580 2.001946 7.295455
3631
root 2.632784 37.005444 3.951805 2.462264 1.715390 2.826371
RightUpLeg 8.251463 -9.417625 -5.318877
RightLeg -5.753323 -0.000000 0.000000
RightFoot -13.549816 -16.301892 16.963318
RightToeBase 13.533161 -0.000000 -0.000000
LeftUpLeg 5.605969 -2.643825 -0.456826
LeftLeg -3.404272 -0.000000 0.000000
LeftFoot -10.086005 13.793065 -17.419986
LeftToeBase 7.576337 -0.000000 -0.000000
Spine -2.694223 20.329961 -1.239813
RightShoulder 3.127410 -30.792623 -14.397055
RightArm 14.004280 -24.505765 66.226548
RightForeArm 11.709295 -0.000000 46.962280
RightHand 3.023280 -0.000000 -0.778651
RightHandThumb1 -24.326973 -0.000000 -32.862282
LeftShoulder -35.468821 32.669654 7.231272
LeftArm 16.315262 -47.234806 -26.581940
LeftForeArm -62.857964 0.000000 109.924158
LeftHand -18.286690 -0.000000 11.286004
LeftHandThumb1 -26.253704 0.000000 33.147579
Head 20.107848 1.972513 7.242201
3632
root 2.635294 37.004225 3.964938 2.347756 1.829185 2.830493
RightUpLeg 8.394237 -9.416094 -5.345328
RightLeg -5.713774 -0.000000 0.000000
RightFoot -13.615214 -16.333629 17.034778
RightToeBase 13.491445 -0.000000 -0.000000
LeftUpLeg 5.712791 -2.756609 -0.467401
LeftLeg -3.368392 -0.000000 0.000000
LeftFoot -10.114630 13.802748 -17.412508
LeftToeBase 7.519416 -0.000000 -0.000000
Spine -2.672480 20.384907 -1.149589
RightShoulder 3.161269 -30.851288 -14.440622
RightArm 13.941693 -24.672232 66.119636
RightForeArm 11.416538 -0.000000 46.924901
RightHand 2.936340 -0.000000 -0.625772
RightHandThumb1 -24.326973 -0.000000 -32.862282
LeftShoulder -35.029494 32.640943 7.893480
LeftArm 14.908955 -42.391903 -23.225926
LeftForeArm -63.877648 0.000000 108.851843
LeftHand -19.238878 -0.000000 10.607726
LeftHandThumb1 -26.253704 0.000000 33.147579
Head 20.170036 1.992192 7.195894
3633
root 2.638652 37.003842 3.975933 2.202612 1.976051 2.843273
RightUpLeg 8.556121 -9.454767 -5.367547
RightLeg -5.661770 -0.000000 0.000000
RightFoot -13.678959 -16.472382 17.006294
RightToeBase 13.475361 -0.000000 -0.000000
LeftUpLeg 5.837746 -2.880390 -0.486118
LeftLeg -3.325038 -0.000000 0.000000
LeftFoot -10.180910 13.790851 -17.484274
LeftToeBase 7.673528 -0.000000 -0.000000
Spine -2.607818 20.430657 -1.026700
RightShoulder 3.198832 -31.027571 -14.497809
RightArm 13.994597 -24.808479 65.972297
RightForeArm 11.468131 -0.000000 46.894098
RightHand 2.894394 0.000000 -0.540092
RightHandThumb1 -24.326973 -0.000000 -32.862282
LeftShoulder -34.718284 32.928934 8.197576
LeftArm 14.206171 -37.837448 -20.297269
LeftForeArm -64.715086 -0.000000 107.706918
LeftHand -20.151073 -0.000000 9.394073
LeftHandThumb1 -26.253704 0.000000 33.147579
Head 20.262201 2.022716 7.129328
